<svg width="24" height="24" viewBox="0 0 24 24" fill="none" xmlns="http://www.w3.org/2000/svg">
<path d="M8.37501 16.2724H10.1875M14.7188 14.7188V17.2563C14.7188 18.2713 14.7186 18.7788 14.5374 19.1685C14.3561 19.5038 14.0848 19.7848 13.7223 19.9569C13.3598 20.1563 12.8155 20.1563 11.8186 20.1563H6.74393C5.74706 20.1563 5.20277 20.1563 4.84027 19.9569C4.47777 19.7848 4.20643 19.5038 4.02518 19.1685C3.84393 18.7788 3.84375 18.2713 3.84375 17.2563V6.74371C3.84375 5.72871 3.84393 5.22122 4.02518 4.83153C4.20643 4.49622 4.47777 4.21529 4.84027 4.0431C5.20277 3.84372 5.74706 3.84375 6.74393 3.84375H9.28127M12.9063 7.51412C13.8125 7.69537 14.5375 8.12129 15.1719 8.74661C15.8063 9.38098 16.2598 10.1784 16.441 11.0484M12.9063 3.84375C14.7188 4.05219 16.441 4.87684 17.8004 6.18184C19.0691 7.49591 19.8844 9.20872 20.1563 11.0484" stroke="#121212" style="stroke:#121212;stroke:color(display-p3 0.0706 0.0706 0.0706);stroke-opacity:1;" stroke-width="1.2" stroke-linecap="round" stroke-linejoin="round"/>
</svg>
