<svg width="24" height="24" viewBox="0 0 24 24" fill="none" xmlns="http://www.w3.org/2000/svg">
<path d="M14.3615 9.20274V5.83265C14.3615 5.26458 13.9009 4.80408 13.3329 4.80408H10.5908H5.56411H4.07935C3.51129 4.80408 3.05078 5.26458 3.05078 5.83265V17.5995C3.05078 18.1676 3.51129 18.6281 4.07935 18.6281H7.91841" stroke="#121212" style="stroke:#121212;stroke:color(display-p3 0.0706 0.0706 0.0706);stroke-opacity:1;" stroke-width="1.11429" stroke-linecap="round"/>
<path d="M5.34717 7.94604H5.86145" stroke="#121212" style="stroke:#121212;stroke:color(display-p3 0.0706 0.0706 0.0706);stroke-opacity:1;" stroke-width="1.11429" stroke-linecap="round"/>
<path d="M5.34717 11.4878H5.86145" stroke="#121212" style="stroke:#121212;stroke:color(display-p3 0.0706 0.0706 0.0706);stroke-opacity:1;" stroke-width="1.11429" stroke-linecap="round"/>
<path d="M5.34717 15.0295H5.86145" stroke="#121212" style="stroke:#121212;stroke:color(display-p3 0.0706 0.0706 0.0706);stroke-opacity:1;" stroke-width="1.11429" stroke-linecap="round"/>
<path d="M7.44824 7.94604H12.0768" stroke="#121212" style="stroke:#121212;stroke:color(display-p3 0.0706 0.0706 0.0706);stroke-opacity:1;" stroke-width="1.11429" stroke-linecap="round"/>
<path d="M7.44824 11.4878L10.2768 11.4862" stroke="#121212" style="stroke:#121212;stroke:color(display-p3 0.0706 0.0706 0.0706);stroke-opacity:1;" stroke-width="1.11429" stroke-linecap="round"/>
<path d="M7.44629 15.0345H9.29772" stroke="#121212" style="stroke:#121212;stroke:color(display-p3 0.0706 0.0706 0.0706);stroke-opacity:1;" stroke-width="1.11429" stroke-linecap="round"/>
<path d="M12.3344 13.7821V11.8531H12.1879C12.0713 11.8531 11.9596 11.8066 11.8771 11.724C11.7947 11.6413 11.7484 11.5292 11.7484 11.4123C11.7484 11.2953 11.7947 11.1832 11.8771 11.1005C11.9596 11.0179 12.0713 10.9714 12.1879 10.9714H15.9967C16.1133 10.9714 16.2251 11.0179 16.3075 11.1005C16.3899 11.1832 16.4362 11.2953 16.4362 11.4123C16.4362 11.5292 16.3899 11.6413 16.3075 11.724C16.2251 11.8066 16.1133 11.8531 15.9967 11.8531H15.8502V13.7821L17.9984 17.1675C18.5568 18.048 17.9263 19.2 16.8856 19.2H11.299C10.2583 19.2 9.62778 18.048 10.1862 17.1675L12.3344 13.7821ZM10.9281 17.6407C10.8857 17.7073 10.862 17.7842 10.8595 17.8632C10.8569 17.9422 10.8755 18.0204 10.9135 18.0897C10.9514 18.159 11.0072 18.2168 11.075 18.257C11.1428 18.2972 11.2202 18.3184 11.299 18.3184H16.8856C16.9644 18.3184 17.0418 18.2972 17.1096 18.257C17.1775 18.2168 17.2332 18.159 17.2712 18.0897C17.3091 18.0204 17.3277 17.9422 17.3252 17.8632C17.3226 17.7842 17.2989 17.7073 17.2566 17.6407L16.5681 16.5551H11.6166L10.9281 17.6407ZM14.9713 11.8531H13.2134V13.9102C13.2134 13.9943 13.1899 14.0765 13.1448 14.1471L12.1762 15.6735H16.0084L15.0398 14.1471C14.9949 14.0763 14.9711 13.9941 14.9713 13.9102V11.8531Z" fill="#121212" style="fill:#121212;fill:color(display-p3 0.0706 0.0706 0.0706);fill-opacity:1;"/>
</svg>
